<?xml version="1.0" standalone="no"?>
<!DOCTYPE svg PUBLIC "-//W3C//DTD SVG 20010904//EN"
 "http://www.w3.org/TR/2001/REC-SVG-20010904/DTD/svg10.dtd">
<svg version="1.0" xmlns="http://www.w3.org/2000/svg"
 width="76.000000pt" height="78.000000pt" viewBox="0 0 76.000000 78.000000"
 preserveAspectRatio="xMidYMid meet">

<g transform="translate(0.000000,78.000000) scale(0.100000,-0.100000)"
fill="#000000" stroke="none">
<path d="M173 594 c10 -106 37 -142 152 -210 15 -8 19 -24 19 -84 l1 -74 -70
-12 c-68 -12 -182 -47 -194 -60 -3 -4 8 -4 24 1 163 39 319 46 440 19 115 -26
123 -26 55 2 -36 14 -103 31 -148 37 l-84 12 6 37 c3 21 14 54 23 73 15 31 21
35 57 35 47 0 113 28 139 58 10 11 29 46 42 79 30 72 21 80 -67 64 -74 -13
-123 -44 -149 -93 -31 -60 -25 -75 16 -39 40 35 115 76 115 63 0 -5 -11 -14
-25 -20 -39 -18 -121 -99 -135 -132 -14 -34 -30 -39 -30 -10 0 34 -36 118 -74
170 -20 27 -32 50 -27 50 13 0 58 -56 84 -104 l22 -41 3 29 c10 81 -36 152
-123 192 -77 36 -79 35 -72 -42z"/>
</g>
</svg>
